<svg width="565" height="1700" viewBox="0 0 565 1700" fill="none" xmlns="http://www.w3.org/2000/svg">
<g clip-path="url(#clip0_2032_2)">
<path d="M1001.39 431.97C935.641 454.507 791.386 269.97 655.886 314.97C520.386 359.97 435.886 544.97 435.886 666.47C435.886 787.969 487.386 1038.47 281.886 951.97C76.3863 865.47 -19.9128 1117.19 82.3856 1266.47C184.684 1415.75 933.384 1729.97 828.184 1686.75" stroke="#BFFFC6" stroke-width="36"/>
<path d="M850.108 127.573C792.846 166.96 1310.14 132.915 1183.68 153.752C1057.22 174.589 787.184 44.7522 655.684 143.252C524.184 241.752 528.783 455.405 322.886 489.47C116.989 523.535 47.8857 770.97 123.886 966.47C199.886 1161.97 813.057 1490.36 850.108 1577.75" stroke="#BFCDFF" stroke-width="36"/>
<path d="M1288.89 1157.47C1222.37 1137.32 696.886 1467.97 499.886 1436.97C302.886 1405.97 267.386 1227.47 279.886 1075.47C292.386 923.47 361.886 840.97 318.886 721.97C275.886 602.97 96.684 513.252 228.184 297.752C359.684 82.2521 1006.83 156.756 961.684 240.252" stroke="#FFDD85" stroke-width="36"/>
</g>
<defs>
<clipPath id="clip0_2032_2">
<rect width="565" height="1700" fill="white"/>
</clipPath>
</defs>
</svg>
